# xmcd
#
# Track frame offsets:
#	150
#	9710
#	21908
#	46065
#	63658
#	70585
#	81794
#	93656
#	109212
#	124801
#
# Disc length: 1885 seconds
#
# Revision: 1
# Processed by: cddbd v1.5.2PL0 Copyright (c) Steve Scherf et al.
# Submitted via: audiograbber 1.83.01
#
DISCID=82075b0a
DTITLE=Gunsmoke - Ride'em Hard
DYEAR=1996
DGENRE=Country
TTITLE0=Redneck Saturday Night
TTITLE1=Steam On Wheels
TTITLE2=Call Me Driftwood
TTITLE3=Fit The Key To The Lock
TTITLE4=Bandit Country
TTITLE5=The Country Style
TTITLE6=Gimme A Smoke
TTITLE7=Tell Me That You Love Me
TTITLE8=Ride'em Hard
TTITLE9=Old No.7
EXTD=
EXTT0=
EXTT1=
EXTT2=
EXTT3=
EXTT4=
EXTT5=
EXTT6=
EXTT7=
EXTT8=
EXTT9=
PLAYORDER=
